<mxfile host="app.diagrams.net" agent="Mozilla/5.0 (Windows NT 10.0; Win64; x64) AppleWebKit/537.36 (KHTML, like Gecko) Chrome/135.0.0.0 Safari/537.36 Edg/135.0.0.0" version="26.2.9">
  <diagram name="PÃ¡gina-1" id="CuK9cOZhuQknt59LZgHe">
    <mxGraphModel dx="2247" dy="1955" grid="1" gridSize="10" guides="1" tooltips="1" connect="1" arrows="1" fold="1" page="1" pageScale="1" pageWidth="827" pageHeight="1169" math="0" shadow="0">
      <root>
        <mxCell id="0" />
        <mxCell id="1" parent="0" />
        <mxCell id="PiJll2m1T-nXV3ZxVr3H-24" value="" style="edgeStyle=orthogonalEdgeStyle;rounded=0;orthogonalLoop=1;jettySize=auto;html=1;" edge="1" parent="1" source="PiJll2m1T-nXV3ZxVr3H-3" target="PiJll2m1T-nXV3ZxVr3H-23">
          <mxGeometry relative="1" as="geometry" />
        </mxCell>
        <mxCell id="PiJll2m1T-nXV3ZxVr3H-3" value="" style="ellipse;whiteSpace=wrap;html=1;aspect=fixed;" vertex="1" parent="1">
          <mxGeometry x="-230" y="50" width="30" height="30" as="geometry" />
        </mxCell>
        <mxCell id="PiJll2m1T-nXV3ZxVr3H-4" value="" style="ellipse;whiteSpace=wrap;html=1;aspect=fixed;" vertex="1" parent="1">
          <mxGeometry x="1070" y="630" width="40" height="40" as="geometry" />
        </mxCell>
        <mxCell id="PiJll2m1T-nXV3ZxVr3H-22" style="edgeStyle=orthogonalEdgeStyle;rounded=0;orthogonalLoop=1;jettySize=auto;html=1;exitX=0.5;exitY=1;exitDx=0;exitDy=0;" edge="1" parent="1" source="PiJll2m1T-nXV3ZxVr3H-3" target="PiJll2m1T-nXV3ZxVr3H-3">
          <mxGeometry relative="1" as="geometry" />
        </mxCell>
        <mxCell id="PiJll2m1T-nXV3ZxVr3H-26" value="" style="edgeStyle=orthogonalEdgeStyle;rounded=0;orthogonalLoop=1;jettySize=auto;html=1;" edge="1" parent="1" source="PiJll2m1T-nXV3ZxVr3H-23" target="PiJll2m1T-nXV3ZxVr3H-25">
          <mxGeometry relative="1" as="geometry" />
        </mxCell>
        <mxCell id="PiJll2m1T-nXV3ZxVr3H-23" value="Ingrese el valor de A+" style="whiteSpace=wrap;html=1;" vertex="1" parent="1">
          <mxGeometry x="-180" y="-25" width="120" height="60" as="geometry" />
        </mxCell>
        <mxCell id="PiJll2m1T-nXV3ZxVr3H-28" value="" style="edgeStyle=orthogonalEdgeStyle;rounded=0;orthogonalLoop=1;jettySize=auto;html=1;" edge="1" parent="1" source="PiJll2m1T-nXV3ZxVr3H-25" target="PiJll2m1T-nXV3ZxVr3H-27">
          <mxGeometry relative="1" as="geometry" />
        </mxCell>
        <mxCell id="PiJll2m1T-nXV3ZxVr3H-25" value="Ingrese valor de B" style="whiteSpace=wrap;html=1;" vertex="1" parent="1">
          <mxGeometry x="-10" y="-25" width="120" height="60" as="geometry" />
        </mxCell>
        <mxCell id="PiJll2m1T-nXV3ZxVr3H-33" value="" style="edgeStyle=orthogonalEdgeStyle;rounded=0;orthogonalLoop=1;jettySize=auto;html=1;" edge="1" parent="1" source="PiJll2m1T-nXV3ZxVr3H-27" target="PiJll2m1T-nXV3ZxVr3H-25">
          <mxGeometry relative="1" as="geometry" />
        </mxCell>
        <mxCell id="PiJll2m1T-nXV3ZxVr3H-35" value="Si" style="edgeStyle=orthogonalEdgeStyle;rounded=0;orthogonalLoop=1;jettySize=auto;html=1;entryX=1;entryY=0.5;entryDx=0;entryDy=0;" edge="1" parent="1" source="PiJll2m1T-nXV3ZxVr3H-27" target="PiJll2m1T-nXV3ZxVr3H-25">
          <mxGeometry relative="1" as="geometry">
            <mxPoint x="170" as="targetPoint" />
          </mxGeometry>
        </mxCell>
        <mxCell id="PiJll2m1T-nXV3ZxVr3H-41" value="No" style="edgeStyle=orthogonalEdgeStyle;rounded=0;orthogonalLoop=1;jettySize=auto;html=1;" edge="1" parent="1" source="PiJll2m1T-nXV3ZxVr3H-27" target="PiJll2m1T-nXV3ZxVr3H-40">
          <mxGeometry relative="1" as="geometry" />
        </mxCell>
        <mxCell id="PiJll2m1T-nXV3ZxVr3H-27" value="&lt;div&gt;A==B&lt;/div&gt;" style="rhombus;whiteSpace=wrap;html=1;" vertex="1" parent="1">
          <mxGeometry x="10" y="80" width="80" height="80" as="geometry" />
        </mxCell>
        <mxCell id="PiJll2m1T-nXV3ZxVr3H-45" value="" style="edgeStyle=orthogonalEdgeStyle;rounded=0;orthogonalLoop=1;jettySize=auto;html=1;" edge="1" parent="1" source="PiJll2m1T-nXV3ZxVr3H-40" target="PiJll2m1T-nXV3ZxVr3H-44">
          <mxGeometry relative="1" as="geometry" />
        </mxCell>
        <mxCell id="PiJll2m1T-nXV3ZxVr3H-40" value="Ingrese valor de C" style="whiteSpace=wrap;html=1;" vertex="1" parent="1">
          <mxGeometry x="-170" y="90" width="120" height="60" as="geometry" />
        </mxCell>
        <mxCell id="PiJll2m1T-nXV3ZxVr3H-47" value="SI" style="edgeStyle=orthogonalEdgeStyle;rounded=0;orthogonalLoop=1;jettySize=auto;html=1;entryX=0;entryY=0.5;entryDx=0;entryDy=0;" edge="1" parent="1" source="PiJll2m1T-nXV3ZxVr3H-44" target="PiJll2m1T-nXV3ZxVr3H-40">
          <mxGeometry relative="1" as="geometry">
            <mxPoint x="-230" y="120" as="targetPoint" />
          </mxGeometry>
        </mxCell>
        <mxCell id="PiJll2m1T-nXV3ZxVr3H-54" value="" style="edgeStyle=orthogonalEdgeStyle;rounded=0;orthogonalLoop=1;jettySize=auto;html=1;" edge="1" parent="1" source="PiJll2m1T-nXV3ZxVr3H-44" target="PiJll2m1T-nXV3ZxVr3H-53">
          <mxGeometry relative="1" as="geometry" />
        </mxCell>
        <mxCell id="PiJll2m1T-nXV3ZxVr3H-44" value="C==B o C==A" style="rhombus;whiteSpace=wrap;html=1;" vertex="1" parent="1">
          <mxGeometry x="-150" y="220" width="80" height="80" as="geometry" />
        </mxCell>
        <mxCell id="PiJll2m1T-nXV3ZxVr3H-56" value="" style="edgeStyle=orthogonalEdgeStyle;rounded=0;orthogonalLoop=1;jettySize=auto;html=1;" edge="1" parent="1" source="PiJll2m1T-nXV3ZxVr3H-53" target="PiJll2m1T-nXV3ZxVr3H-55">
          <mxGeometry relative="1" as="geometry" />
        </mxCell>
        <mxCell id="PiJll2m1T-nXV3ZxVr3H-53" value="A&amp;lt;B" style="rhombus;whiteSpace=wrap;html=1;" vertex="1" parent="1">
          <mxGeometry x="-240" y="360" width="80" height="80" as="geometry" />
        </mxCell>
        <mxCell id="PiJll2m1T-nXV3ZxVr3H-60" value="SI" style="edgeStyle=orthogonalEdgeStyle;rounded=0;orthogonalLoop=1;jettySize=auto;html=1;" edge="1" parent="1" source="PiJll2m1T-nXV3ZxVr3H-55" target="PiJll2m1T-nXV3ZxVr3H-59">
          <mxGeometry relative="1" as="geometry" />
        </mxCell>
        <mxCell id="PiJll2m1T-nXV3ZxVr3H-62" value="" style="edgeStyle=orthogonalEdgeStyle;rounded=0;orthogonalLoop=1;jettySize=auto;html=1;" edge="1" parent="1" source="PiJll2m1T-nXV3ZxVr3H-55" target="PiJll2m1T-nXV3ZxVr3H-61">
          <mxGeometry relative="1" as="geometry" />
        </mxCell>
        <mxCell id="PiJll2m1T-nXV3ZxVr3H-55" value="B&amp;lt;C" style="rhombus;whiteSpace=wrap;html=1;" vertex="1" parent="1">
          <mxGeometry x="-240" y="505" width="80" height="80" as="geometry" />
        </mxCell>
        <mxCell id="PiJll2m1T-nXV3ZxVr3H-59" value="" style="whiteSpace=wrap;html=1;" vertex="1" parent="1">
          <mxGeometry x="20" y="515" width="120" height="60" as="geometry" />
        </mxCell>
        <mxCell id="PiJll2m1T-nXV3ZxVr3H-63" value="NO" style="edgeStyle=orthogonalEdgeStyle;rounded=0;orthogonalLoop=1;jettySize=auto;html=1;" edge="1" parent="1" source="PiJll2m1T-nXV3ZxVr3H-61" target="PiJll2m1T-nXV3ZxVr3H-55">
          <mxGeometry relative="1" as="geometry" />
        </mxCell>
        <mxCell id="PiJll2m1T-nXV3ZxVr3H-61" value="A&amp;lt;C" style="rhombus;whiteSpace=wrap;html=1;" vertex="1" parent="1">
          <mxGeometry x="-240" y="720" width="80" height="80" as="geometry" />
        </mxCell>
      </root>
    </mxGraphModel>
  </diagram>
</mxfile>
